<svg width="318" height="95" viewBox="0 0 318 95" fill="none" xmlns="http://www.w3.org/2000/svg">
<path d="M248.639 61.0141V67.8269H260.713V72.9351H248.646V79.1317H262.125V84.4747H242.723V55.7054H261.473V61.0141L248.639 61.0141Z" fill="#FFFEFE"/>
<path d="M179.362 84.4688H179.025C177.19 84.4688 175.356 84.4637 173.522 84.4746C173.265 84.4762 173.142 84.4096 173.051 84.1428C172.369 82.1546 171.663 80.175 170.975 78.189C170.896 77.96 170.793 77.8762 170.55 77.8769C167.208 77.8862 163.866 77.8865 160.524 77.8764C160.267 77.8757 160.164 77.961 160.077 78.2045C159.375 80.1735 158.657 82.1366 157.943 84.1013C157.902 84.213 157.858 84.3234 157.809 84.4502H152.008C152.314 83.6557 152.611 82.8797 152.911 82.1049C156.276 73.4119 159.643 64.7196 163.001 56.0237C163.105 55.7561 163.231 55.6733 163.506 55.6761C164.981 55.6914 166.457 55.6876 167.933 55.6787C168.152 55.6773 168.263 55.738 168.349 55.9611C171.982 65.363 175.622 74.7618 179.261 84.1612C179.295 84.25 179.32 84.3424 179.362 84.4688ZM165.567 63.0239C165.543 63.0206 165.519 63.0174 165.496 63.0142C164.304 66.3424 163.113 69.6707 161.914 73.02H169.105C167.92 69.6707 166.743 66.3473 165.567 63.0239Z" fill="#FFFEFE"/>
<path d="M133.19 55.706C133.275 55.6976 133.347 55.6841 133.419 55.6842C137.288 55.6915 141.158 55.6503 145.026 55.7267C147.419 55.7739 149.629 56.4909 151.492 58.0771C152.945 59.3146 153.758 60.9067 154.043 62.7745C154.307 64.5078 154.233 66.2247 153.626 67.886C152.801 70.143 151.141 71.5708 148.97 72.4586C147.549 73.0398 146.054 73.2819 144.525 73.2952C142.68 73.3113 140.835 73.3026 138.991 73.3047C138.897 73.3048 138.803 73.3047 138.673 73.3047V84.4747H133.19L133.19 55.706ZM138.668 68.2763C138.738 68.2845 138.779 68.2935 138.82 68.2935C140.643 68.2922 142.466 68.3152 144.288 68.2742C144.901 68.2604 145.525 68.1364 146.118 67.9705C147.242 67.6562 148.061 66.9831 148.345 65.79C148.541 64.9667 148.544 64.142 148.343 63.319C148.131 62.4451 147.614 61.8198 146.803 61.4304C146.138 61.1115 145.434 60.9162 144.705 60.902C142.746 60.8637 140.786 60.8643 138.827 60.8512C138.778 60.8508 138.729 60.8707 138.668 60.8836L138.668 68.2763Z" fill="#FFFEFE"/>
<path d="M191.864 84.4746H186.369C186.369 84.3352 186.369 84.208 186.369 84.0808C186.369 80.2759 186.371 76.4709 186.361 72.666C186.361 72.4637 186.295 72.2343 186.19 72.0635C182.905 66.7357 179.612 61.4137 176.32 56.0905C176.249 55.9743 176.18 55.8558 176.087 55.7002C176.237 55.6928 176.338 55.6834 176.439 55.6834C178.305 55.6825 180.171 55.688 182.037 55.6764C182.282 55.6749 182.41 55.7613 182.534 55.9725C184.669 59.5892 186.812 63.2006 188.954 66.813C189.013 66.914 189.076 67.0132 189.159 67.1487C189.247 67.0092 189.32 66.8975 189.389 66.7829C191.542 63.1908 193.698 59.6002 195.843 56.0023C195.99 55.7547 196.147 55.6741 196.421 55.6761C198.214 55.6891 200.006 55.6828 201.798 55.6828H202.202C202.105 55.8475 202.038 55.9651 201.967 56.0797C198.666 61.3968 195.363 66.7125 192.071 72.0352C191.949 72.2311 191.873 72.4944 191.872 72.7266C191.86 76.5097 191.864 80.2928 191.864 84.0759V84.4746Z" fill="#FFFEFE"/>
<path d="M317.605 61.0239H308.715V84.4746H303.218V61.0417H294.36V55.7073H317.605L317.605 61.0239Z" fill="#FFFEFE"/>
<path d="M231.263 55.7073V55.676H228.288L220.904 75.9831L213.098 55.7073H211.397H205.913V62.0968V84.4746H211.397V64.197L218.145 82.2522H223.224L229.989 65.29V84.4746H235.473V62.0968V55.7073H231.263Z" fill="#FFFEFE"/>
<path d="M285.562 55.7073V76.2218L273.006 55.7073H267.975V84.4746H273.006V65.0078L285.562 84.4746H290.593V55.7073H285.562Z" fill="#FFFEFE"/>
<path d="M308.849 31.483C311.76 36.0627 314.661 40.6274 317.605 45.258H317.179C315.038 45.258 312.897 45.2527 310.756 45.2648C310.49 45.2663 310.345 45.1835 310.206 44.9496C307.742 40.8175 305.267 36.6932 302.804 32.5604C302.65 32.301 302.484 32.209 302.195 32.2135C301.095 32.2304 299.995 32.2203 298.857 32.2203V45.2324H292.497V11.9648C292.603 11.9543 292.686 11.9387 292.77 11.9389C297.248 11.9473 301.727 11.9085 306.204 11.9856C308.764 12.0297 311.183 12.713 313.295 14.3C315.375 15.8628 316.421 18.018 316.665 20.6184C316.846 22.5418 316.684 24.4249 315.879 26.1978C314.789 28.5995 312.904 30.0763 310.533 30.955C309.997 31.1535 309.443 31.2984 308.849 31.483ZM298.86 26.2976C299.013 26.3048 299.121 26.3143 299.23 26.3143C301.175 26.3151 303.121 26.3235 305.067 26.3088C305.603 26.3048 306.144 26.2608 306.675 26.1838C308.999 25.8473 310.226 24.338 310.12 21.9649C310.052 20.4471 309.478 19.233 308.038 18.6616C307.398 18.4073 306.695 18.2117 306.015 18.1905C303.692 18.1183 301.366 18.1351 299.041 18.1201C298.984 18.1198 298.927 18.1453 298.86 18.1613L298.86 26.2976Z" fill="#FFFEFE"/>
<path d="M190.334 45.2444H183.995V31.6693H170.265V45.2319H163.912V11.9704H170.244V25.4197H183.978V11.9666H190.334L190.334 45.2444Z" fill="#FFFEFE"/>
<path d="M226.958 45.258C225.166 45.258 223.429 45.258 221.692 45.258C221.166 45.258 220.639 45.2424 220.114 45.2645C219.85 45.2756 219.734 45.1858 219.645 44.9276C218.848 42.628 218.029 40.3365 217.235 38.0358C217.127 37.7219 216.987 37.6252 216.664 37.6263C212.809 37.6394 208.954 37.638 205.099 37.6283C204.813 37.6276 204.676 37.7 204.571 37.9947C203.758 40.2748 202.923 42.5466 202.095 44.8208C202.043 44.9618 201.987 45.1008 201.93 45.2471H195.211C195.265 45.0894 195.308 44.9487 195.361 44.812C199.566 33.9779 203.773 23.1444 207.972 12.3079C208.078 12.0356 208.2 11.9261 208.5 11.9291C210.225 11.9465 211.951 11.9442 213.676 11.9308C213.952 11.9287 214.078 12.0149 214.181 12.2822C218.394 23.1537 222.615 34.0218 226.834 44.8905C226.874 44.9937 226.905 45.1006 226.958 45.258ZM206.704 31.9985H215.047C213.667 28.1136 212.3 24.2632 210.898 20.3154C209.476 24.2744 208.096 28.1188 206.704 31.9985Z" fill="#FFFEFE"/>
<path d="M142.767 18.1245H133.19V11.9672H158.758V18.1006H149.147V45.2323H142.767V18.1245Z" fill="#FFFEFE"/>
<path d="M230.855 11.9605H237.167V45.2323H230.855V11.9605Z" fill="#FFFEFE"/>
<path d="M287.226 44.7491L282.277 39.8291C282.889 39.0908 283.437 38.2838 283.913 37.3971C285.293 34.8223 285.983 31.9033 285.983 28.6404C285.983 25.4217 285.327 22.543 284.016 20.0043C282.705 17.4659 280.799 15.487 278.3 14.0677C275.8 12.6487 272.993 11.9389 269.88 11.9389C265.125 11.9389 261.245 13.4498 258.239 16.4709C255.233 19.4924 253.73 23.6732 253.73 29.0134C253.73 31.8374 254.374 34.5149 255.663 37.046C256.951 39.5775 258.845 41.5747 261.345 43.0376C263.844 44.5008 266.682 45.2323 269.856 45.2323C272.786 45.2323 275.516 44.5703 278.046 43.2461C278.124 43.2055 278.196 43.1589 278.272 43.1171L283.57 48.3842L287.226 44.7491ZM269.856 40.0413C267.609 40.0413 265.691 39.5582 263.994 38.5645C262.358 37.6072 261.157 36.344 260.321 34.702C259.399 32.8914 258.951 31.0305 258.951 29.0134C258.951 25.0589 259.932 22.1502 261.951 20.1211C263.982 18.0804 266.501 17.1298 269.88 17.1298C272.089 17.1298 273.997 17.6027 275.711 18.5757C277.328 19.4935 278.525 20.7367 279.372 22.3758C280.307 24.1866 280.762 26.2359 280.762 28.6404C280.762 31.0611 280.285 33.1269 279.305 34.9562C279.079 35.3779 278.831 35.7699 278.562 36.1351L273.513 31.1149L269.857 34.7499L274.355 39.2225C272.944 39.7705 271.461 40.0413 269.856 40.0413Z" fill="#FFFEFE"/>
<path d="M24.9682 0.483908C26.4446 0.408864 27.9225 0.300137 29.4004 0.414994C42.5716 0.427253 55.7443 0.414991 68.9155 0.421121C74.8364 0.448693 80.9641 1.7274 85.8604 5.20823C89.9878 8.09489 92.9054 12.4854 94.4324 17.248C95.3758 20.1592 95.8858 23.2081 95.9715 26.2663C95.9593 39.3061 95.9761 52.3474 95.9624 65.3871C105.478 74.5616 115.01 83.7193 124.527 92.8923C124.846 93.2063 125.271 93.6075 125.147 94.1021C124.916 94.5447 124.343 94.5845 123.905 94.635C92.4046 94.6258 60.9041 94.6335 29.405 94.632C23.8732 94.6626 18.1988 93.8402 13.2397 91.2675C10.3559 89.7775 7.77982 87.6749 5.80415 85.096C2.49604 80.8082 0.832797 75.4269 0.472895 70.0686C0.342712 68.75 0.410102 67.4238 0.431547 66.1038C0.428491 51.5051 0.434606 36.9064 0.428494 22.3077C0.537232 17.8299 1.81759 13.2771 4.59732 9.71053C7.37245 6.08114 11.4616 3.66769 15.753 2.25574C18.7334 1.27259 21.8439 0.730464 24.9682 0.483908ZM19.4286 12.5941C17.3396 13.2756 15.4176 14.5895 14.223 16.4547C12.9977 18.3567 12.4249 20.6553 12.4984 22.908C12.4984 29.2617 12.4969 35.6139 12.5 41.9676C18.0457 41.9691 23.5913 41.9737 29.137 41.9661V32.8651C29.1202 31.3628 29.7879 29.8314 31.0269 28.9493C32.2751 28.0473 33.8664 27.8115 35.3734 27.8482C37.8989 27.8513 40.4244 27.8498 42.9514 27.8498C42.9621 22.5435 42.9453 17.2373 42.9591 11.931C37.2189 11.9126 31.4787 11.9295 25.7401 11.9234C23.6204 11.7197 21.4533 11.9341 19.4286 12.5941ZM54.1653 11.9157C54.1393 17.2266 54.1577 22.5374 54.1561 27.8482C56.8333 27.8528 59.5119 27.8482 62.189 27.8498C63.621 27.8589 65.1219 28.1729 66.2614 29.0871C67.3916 29.9799 67.9874 31.4363 67.9706 32.8605C67.9675 35.8957 67.9415 38.9309 67.9522 41.9661C73.504 41.9737 79.0573 41.9691 84.6091 41.9676V22.6032C84.6474 21.0642 84.4008 19.5129 83.8587 18.0703C83.1067 16.0336 81.5614 14.32 79.6347 13.3261C77.1092 12.0137 74.1702 11.6768 71.3644 11.9234C65.6319 11.9187 59.8978 11.9341 54.1653 11.9157ZM12.5 53.0242C12.4954 59.7301 12.5 66.4346 12.4985 73.1405C12.5459 74.7316 12.8553 76.3472 13.6241 77.7576C14.5385 79.4881 16.0976 80.8204 17.8604 81.6397C20.3981 82.828 23.2575 83.191 26.0341 83.0639C31.6732 83.0685 37.3139 83.0669 42.953 83.0639C42.953 77.7561 42.9591 72.4483 42.9499 67.1405C40.2713 67.139 37.5941 67.1405 34.9155 67.1405C33.4835 67.1344 31.9796 66.8174 30.8416 65.9016C29.7114 65.0058 29.1217 63.5464 29.137 62.1222V53.0242C23.5914 53.0212 18.0457 53.0212 12.5 53.0242ZM67.9384 53.6766C67.9215 56.5387 67.9338 59.4024 67.9323 62.2646C67.9797 63.4866 67.6658 64.7745 66.8204 65.6918C65.8754 66.6872 64.4587 67.1206 63.1125 67.1038C60.0188 67.09 56.9251 67.1206 53.8314 67.0885C53.761 67.7791 53.8146 68.4744 53.7993 69.1696C53.7931 73.7239 53.8115 78.2783 53.7901 82.8326C55.1041 82.8816 56.4197 82.8403 57.7353 82.8541C70.8881 82.8449 84.0409 82.8709 97.1937 82.8403C91.5408 77.1634 85.8496 71.5264 80.1922 65.8526C76.0892 61.8128 72.0766 57.6781 67.9384 53.6766Z" fill="white"/>
<path d="M67.9384 53.6766C72.0766 57.6781 76.0892 61.8128 80.1922 65.8526C85.8496 71.5264 91.5408 77.1635 97.1937 82.8403C84.0409 82.8709 70.8881 82.8449 57.7353 82.8541C56.4197 82.8403 55.1041 82.8817 53.7901 82.8326C53.8115 78.2783 53.7932 73.724 53.7993 69.1696C53.8146 68.4744 53.761 67.7791 53.8314 67.0885C56.9251 67.1206 60.0188 67.09 63.1125 67.1038C64.4587 67.1206 65.8754 66.6872 66.8204 65.6918C67.6658 64.7745 67.9797 63.4866 67.9323 62.2646C67.9338 59.4024 67.9215 56.5387 67.9384 53.6766Z" fill="#54A69A"/>
</svg>
